<?xml version="1.0" encoding="utf-8"?>
<!-- Generator: Adobe Illustrator 25.2.0, SVG Export Plug-In . SVG Version: 6.00 Build 0)  -->
<svg version="1.1" id="Layer_1" xmlns="http://www.w3.org/2000/svg" xmlns:xlink="http://www.w3.org/1999/xlink" x="0px" y="0px"
	 viewBox="0 0 612 792" style="enable-background:new 0 0 612 792;" xml:space="preserve">
<style type="text/css">
	<!-- Truck Body -->
	.st0{fill:#000;}
	<!-- Tires Outside -->
	.st1{fill:#f7f8fc;}
	<!-- Tires Inside -->
	.st2{fill:#000;}
	<!-- Window -->
	.st3{fill:#f7f8fc;}
	<!-- "The + Group" -->
	.st4{fill:#000;}
	.st5{font-family:'MyriadPro-Regular';}
	.st6{font-size:16px;}
	<!-- "WholeSale" -->
	.st7{fill:#f7f8fc;}
	<!-- Inner Truck Rectangle + hub caps-->
	.st8{fill:#1f85b4;}
</style>
<!-- Head and back connecting bar -->
<rect x="355.2" y="308.1" class="st0" width="19.7" height="7.1"/>
<!-- Main black body rectangle -->
<rect x="253" y="265.2" class="st0" width="119.6" height="49.9"/>
<!-- Blue inner body rectangle -->
<rect x="256" y="268.2" class="st8" width="114" height="43.9"/>

<!-- First Outside Tire -->
<circle class="st1" cx="287.9" cy="319" rx="9.5" r="10"/>
<!-- Second Outside Tire -->
<circle class="st1" cx="345" cy="319" rx="10.1" r="10"/>
<!-- First Inside Tire -->
<circle cx="288" cy="319" r="9"/>
<!-- Second Inside Tire -->
<circle class="st2" cx="345" cy="319" r="9"/>

<!-- Truck Head Shape -->
<path class="st0" d="M374.4,269.7v45.5h35.4l-4.6-30.8c-0.4-1-1-2.1-1.8-3.3c-2.2-3-5-4.6-6.7-5.5L374.4,269.7z"/>
<!-- Truck Window Shape -->
<path class="st3" d="M389,280.5V296H401l-1.6-10.5c-0.1-0.3-0.3-0.7-0.6-1.1c-0.7-1-1.7-1.6-2.3-1.9L389,280.5z"/>

<!-- Third Outside Tire -->
<circle class="st1" cx="388.4" cy="319.6" r="10"/>
<!-- Third Inside Tire -->
<circle class="st2" cx="388.3" cy="319.5" r="9"/>

<!-- Hub Caps -->
<circle class="st8" cx="288" cy="319" r="3.5"/>
<circle class="st8" cx="344.9" cy="319.2" r="3.5"/>
<circle class="st8" cx="388.3" cy="319.5" r="3.5"/>

<!-- Hub mini circles (FIRST TIRE)-->
<circle class="st0" cx="289.3" cy="318.4" r=".5"/>
<circle class="st0" cx="289.3" cy="320.4" r=".5"/>
<circle class="st" cx="286.8" cy="320.4" r=".5"/>
<circle class="st0" cx="286.8" cy="318.4" r=".5"/>

<!-- Hub mini circles (MIDDLE TIRE)-->
<circle class="st0" cx="346" cy="318.6" r=".5"/>
<circle class="st0" cx="346" cy="320.6" r=".5"/>
<circle class="st" cx="343.7" cy="320.6" r=".5"/>
<circle class="st0" cx="343.7" cy="318.6" r=".5"/>

<!-- Hub mini circles (LAST TIRE)-->
<circle class="st0" cx="389.5" cy="318.8" r=".5"/>
<circle class="st0" cx="389.5" cy="320.8" r=".5"/>
<circle class="st" cx="387.3" cy="320.8" r=".5"/>
<circle class="st0" cx="387.3" cy="318.8" r=".5"/>

<text transform="matrix(1 0 0 1 260 282)" class="st4 st5 st6">The </text>
<text transform="matrix(1 0 0 1 275 295)" class="st7 st5 st6">WholeSale</text>
<text transform="matrix(1 0 0 1 326 308)" class="st4 st5 st6">Group</text>
</svg>
