<?xml version="1.0" encoding="utf-8"?>
<!-- Generator: Adobe Illustrator 25.2.0, SVG Export Plug-In . SVG Version: 6.00 Build 0)  -->
<svg version="1.1" id="Layer_1" xmlns="http://www.w3.org/2000/svg" xmlns:xlink="http://www.w3.org/1999/xlink" x="0px" y="0px"
	 viewBox="0 0 612 792" style="enable-background:new 0 0 612 792;" xml:space="preserve">
<style type="text/css">
	<!-- Truck Body -->
	.st0{fill:#000;}
	<!-- Tires Outside -->
	.st1{fill:#f7f8fc;}
	<!-- Tires Inside -->
	.st2{fill:#000;}
	<!-- Window -->
	.st3{fill:#f7f8fc;}
	<!-- "The + Group" -->
	.st4{fill:#f7f8fc;}
	.st5{font-family:'MyriadPro-Regular';}
	.st6{font-size:61.4002px;}
	<!-- "WholeSale" -->
	.st7{fill:#1f85b4;}
	<!-- Inner Truck Rectangle-->
	.st8{fill:#1f85b4;}
</style>
<rect x="355.2" y="308.1" class="st0" width="19.7" height="7.1"/>
<rect x="253" y="265.2" class="st0" width="119.6" height="49.9"/>
<rect x="256" y="268.2" class="st8" width="114" height="43.9"/>
<ellipse class="st1" cx="287.9" cy="319" rx="9.5" ry="9.2"/>
<ellipse class="st1" cx="345" cy="319" rx="10.1" ry="9.8"/>
<circle cx="288" cy="318" r="7.5"/>
<circle class="st1" cx="288" cy="319" r="9.5"/>
<circle class="st2" cx="288" cy="319" r="8.7"/>
<circle class="st2" cx="344.9" cy="319" r="9.2"/>
<path class="st0" d="M374.4,269.7v45.5h35.4l-4.6-30.8c-0.4-1-1-2.1-1.8-3.3c-2.2-3-5-4.6-6.7-5.5L374.4,269.7z"/>
<path class="st3" d="M389,280.5V296H401l-1.6-10.5c-0.1-0.3-0.3-0.7-0.6-1.1c-0.7-1-1.7-1.6-2.3-1.9L389,280.5z"/>
<circle class="st1" cx="388.4" cy="319.6" r="9.8"/>
<circle class="st2" cx="388.3" cy="319.5" r="9"/>
<text transform="matrix(1 0 0 1 153.0408 324.0181)" class="st4 st5 st6">The </text>
<text transform="matrix(1 0 0 1 168.1951 377.8443)" class="st7 st5 st6">WholeSale</text>
<text transform="matrix(1 0 0 1 293.5154 428.8072)" class="st4 st5 st6">Group</text>
</svg>